<svg width="20" height="20" viewBox="0 0 20 20" fill="none" xmlns="http://www.w3.org/2000/svg">
<path d="M7.74167 17.5C7.05319 17.4967 6.37224 17.3565 5.73846 17.0875C5.10468 16.8186 4.53073 16.4262 4.05001 15.9333C3.57289 15.4811 3.18963 14.9393 2.92216 14.3388C2.65468 13.7383 2.50824 13.091 2.49121 12.4339C2.47418 11.7767 2.5869 11.1227 2.82292 10.5091C3.05894 9.89561 3.41362 9.33464 3.86667 8.85834L10 2.66667C10.3275 2.33973 10.7179 2.08257 11.1476 1.91069C11.5773 1.73882 12.0374 1.65581 12.5 1.66667C12.9956 1.66836 13.4859 1.7687 13.9423 1.96185C14.3987 2.155 14.8121 2.43709 15.1583 2.79167C15.8475 3.4552 16.2472 4.36377 16.2706 5.32015C16.294 6.27653 15.9392 7.20356 15.2833 7.9L9.11667 14.0917C8.91916 14.2905 8.68412 14.4482 8.42519 14.5555C8.16627 14.6627 7.88861 14.7175 7.60834 14.7167C7.30557 14.7171 7.00579 14.6568 6.72669 14.5394C6.44759 14.4221 6.19483 14.25 5.98334 14.0333C5.56061 13.6241 5.31648 13.0645 5.304 12.4762C5.29152 11.8879 5.51169 11.3185 5.91667 10.8917L11.6083 5.175C11.7703 5.06742 11.9648 5.01988 12.1582 5.0406C12.3515 5.06132 12.5315 5.14901 12.667 5.28847C12.8026 5.42793 12.885 5.6104 12.9002 5.80426C12.9153 5.99812 12.8622 6.19118 12.75 6.35L7.05834 12.0667C6.96343 12.181 6.91723 12.3281 6.9297 12.4761C6.94217 12.6242 7.01231 12.7615 7.12501 12.8583C7.24227 12.9764 7.40035 13.045 7.56667 13.05C7.62829 13.0509 7.68946 13.0396 7.74668 13.0167C7.80389 12.9938 7.856 12.9598 7.90001 12.9167L14.0583 6.725C14.404 6.34099 14.5847 5.83636 14.5613 5.32021C14.5379 4.80406 14.3123 4.31785 13.9333 3.96667C13.5813 3.6012 13.1026 3.38455 12.5957 3.3613C12.0889 3.33805 11.5923 3.50996 11.2083 3.84167L5.05001 10C4.75054 10.3216 4.51764 10.6993 4.3647 11.1113C4.21175 11.5233 4.14179 11.9615 4.15883 12.4006C4.17586 12.8398 4.27957 13.2712 4.46398 13.6701C4.64839 14.069 4.90986 14.4275 5.23334 14.725C5.55774 15.0613 5.9459 15.3295 6.37514 15.5141C6.80439 15.6987 7.26611 15.7959 7.73334 15.8C8.13619 15.8033 8.53572 15.7269 8.90897 15.5753C9.28222 15.4237 9.62185 15.1999 9.90834 14.9167L16.0667 8.725C16.1438 8.6473 16.2355 8.58556 16.3365 8.5433C16.4376 8.50104 16.5459 8.47909 16.6554 8.47871C16.7649 8.47832 16.8734 8.4995 16.9747 8.54105C17.076 8.58259 17.1681 8.64368 17.2458 8.72084C17.3235 8.79799 17.3853 8.88969 17.4275 8.9907C17.4698 9.09171 17.4918 9.20006 17.4921 9.30956C17.4925 9.41905 17.4713 9.52755 17.4298 9.62886C17.3883 9.73017 17.3272 9.8223 17.25 9.9L11.0917 16.0917C10.6544 16.5366 10.1331 16.8903 9.55802 17.1321C8.98293 17.3738 8.36552 17.4989 7.74167 17.5Z" fill="black"/>
</svg>
