<svg width="20" height="20" viewBox="0 0 20 20" fill="none" xmlns="http://www.w3.org/2000/svg">
<path fill-rule="evenodd" clip-rule="evenodd" d="M15 10C15 10.1658 14.9342 10.3247 14.8169 10.4419C14.6997 10.5591 14.5408 10.625 14.375 10.625H7.13375L9.8175 13.3075C9.87561 13.3656 9.92171 13.4346 9.95316 13.5105C9.98461 13.5864 10.0008 13.6678 10.0008 13.75C10.0008 13.8322 9.98461 13.9136 9.95316 13.9895C9.92171 14.0654 9.87561 14.1344 9.8175 14.1925C9.75939 14.2506 9.69041 14.2967 9.61448 14.3282C9.53856 14.3596 9.45718 14.3758 9.375 14.3758C9.29282 14.3758 9.21145 14.3596 9.13552 14.3282C9.0596 14.2967 8.99061 14.2506 8.9325 14.1925L5.1825 10.4425C5.1243 10.3844 5.07812 10.3155 5.04661 10.2395C5.0151 10.1636 4.99889 10.0822 4.99889 10C4.99889 9.91779 5.0151 9.83639 5.04661 9.76045C5.07812 9.68452 5.1243 9.61555 5.1825 9.5575L8.9325 5.8075C9.04986 5.69014 9.20903 5.62421 9.375 5.62421C9.54097 5.62421 9.70015 5.69014 9.8175 5.8075C9.93486 5.92485 10.0008 6.08403 10.0008 6.25C10.0008 6.41597 9.93486 6.57514 9.8175 6.6925L7.13375 9.375H14.375C14.5408 9.375 14.6997 9.44084 14.8169 9.55805C14.9342 9.67526 15 9.83424 15 10Z" fill="black"/>
</svg>
