<svg width="20" height="20" viewBox="0 0 20 20" fill="none" xmlns="http://www.w3.org/2000/svg">
<path d="M5.00002 17.5C4.85686 17.4996 4.71623 17.4623 4.59168 17.3917C4.46296 17.3193 4.35578 17.2141 4.2811 17.0867C4.20642 16.9593 4.16694 16.8143 4.16668 16.6667V4.44167C4.15542 3.94193 4.34154 3.45789 4.68471 3.09444C5.02788 2.73099 5.50046 2.51741 6.00002 2.5H14C14.4996 2.51741 14.9721 2.73099 15.3153 3.09444C15.6585 3.45789 15.8446 3.94193 15.8333 4.44167V16.6667C15.8325 16.8121 15.7935 16.9548 15.7205 17.0805C15.6474 17.2062 15.5426 17.3106 15.4167 17.3833C15.29 17.4565 15.1463 17.495 15 17.495C14.8537 17.495 14.71 17.4565 14.5833 17.3833L9.85835 14.7083L5.41668 17.375C5.29131 17.4528 5.14752 17.496 5.00002 17.5Z" fill="black"/>
</svg>
