<svg width="20" height="20" viewBox="0 0 20 20" fill="none" xmlns="http://www.w3.org/2000/svg">
<path d="M13.7125 6.2125C13.8886 6.04486 14.1229 5.95218 14.366 5.95402C14.6092 5.95586 14.8421 6.05207 15.0156 6.22236C15.1891 6.39264 15.2897 6.62368 15.2961 6.86672C15.3026 7.10975 15.2143 7.34578 15.05 7.525L10.0625 13.7625C9.97676 13.8549 9.87325 13.929 9.75818 13.9805C9.64312 14.0319 9.51886 14.0596 9.39283 14.062C9.26681 14.0643 9.14161 14.0412 9.02471 13.994C8.90782 13.9469 8.80164 13.8766 8.71252 13.7875L5.40501 10.48C5.31291 10.3942 5.23903 10.2907 5.18779 10.1757C5.13655 10.0607 5.109 9.93653 5.10677 9.81065C5.10455 9.68477 5.12771 9.55974 5.17486 9.443C5.22201 9.32627 5.29219 9.22022 5.38122 9.1312C5.47024 9.04218 5.57628 8.972 5.69302 8.92485C5.80975 8.87769 5.93479 8.85454 6.06067 8.85676C6.18655 8.85898 6.31069 8.88653 6.42569 8.93777C6.54069 8.98901 6.64419 9.06289 6.73002 9.155L9.34752 11.7712L13.6888 6.24C13.6966 6.23037 13.7049 6.22119 13.7138 6.2125H13.7125Z" fill="black"/>
</svg>
