<svg width="20" height="20" viewBox="0 0 20 20" fill="none" xmlns="http://www.w3.org/2000/svg">
<g clip-path="url(#clip0_89_1722)">
<path d="M6.65 9.6C8.74891 9.6 10.45 7.89891 10.45 5.8C10.45 3.70109 8.74891 2 6.65 2C4.55109 2 2.85 3.70109 2.85 5.8C2.85 7.89891 4.55109 9.6 6.65 9.6ZM9.31 10.55H8.81422C8.15516 10.8528 7.42188 11.025 6.65 11.025C5.87813 11.025 5.14781 10.8528 4.48578 10.55H3.99C1.78719 10.55 0 12.3372 0 14.54V15.775C0 16.5617 0.638281 17.2 1.425 17.2H9.58609C9.51484 16.9981 9.48516 16.7844 9.50891 16.5677L9.71078 14.7597L9.74641 14.4302L9.98094 14.1956L12.2758 11.9008C11.5484 11.0784 10.4945 10.55 9.31 10.55ZM10.6548 14.8636L10.453 16.6745C10.4203 16.9773 10.6756 17.2327 10.9755 17.197L12.7834 16.9952L16.8773 12.9012L14.7488 10.7727L10.6548 14.8636ZM18.7922 9.98297L17.667 8.85781C17.3909 8.58172 16.9397 8.58172 16.6636 8.85781L15.5414 9.98L15.4197 10.1017L17.5513 12.2303L18.7922 10.9894C19.0683 10.7103 19.0683 10.262 18.7922 9.98297Z" fill="black"/>
</g>
<defs>
<clipPath id="clip0_89_1722">
<rect width="19" height="15.2" fill="white" transform="translate(0 2)"/>
</clipPath>
</defs>
</svg>
