<svg width="20" height="20" viewBox="0 0 20 20" fill="none" xmlns="http://www.w3.org/2000/svg">
<path d="M19 10C19 5.02429 14.9629 1 10 1C5.02429 1 1 5.02429 1 10C1 14.9757 5.02429 19 10 19C14.9629 19 19 14.9757 19 10ZM10.9 11.9029H8.89429V11.35C8.89429 10.8614 8.99714 10.45 9.20286 10.09C9.40857 9.73 9.79429 9.35714 10.3343 8.94571C10.8614 8.57286 11.2086 8.26429 11.3757 8.03286C11.5557 7.80143 11.6329 7.53143 11.6329 7.23571C11.6329 6.91429 11.5171 6.67 11.2729 6.49C11.0286 6.32286 10.6943 6.24571 10.2571 6.24571C9.51143 6.24571 8.65 6.49 7.68571 6.97857L6.86286 5.33286C7.98143 4.70286 9.17714 4.38143 10.4243 4.38143C11.4657 4.38143 12.2886 4.63857 12.8929 5.12714C13.51 5.62857 13.8057 6.29714 13.8057 7.12C13.8057 7.67286 13.69 8.14857 13.4329 8.54714C13.1886 8.95857 12.7 9.40857 12.0057 9.91C11.5171 10.27 11.2214 10.54 11.0929 10.72C10.9643 10.9129 10.9 11.1571 10.9 11.4529V11.9029ZM9.01 15.4257C8.77857 15.2071 8.66286 14.8857 8.66286 14.4871C8.66286 14.0629 8.76571 13.7414 8.99714 13.5229C9.22857 13.3043 9.55 13.2014 9.98714 13.2014C10.3986 13.2014 10.72 13.3171 10.9514 13.5357C11.1829 13.7543 11.2986 14.0757 11.2986 14.4871C11.2986 14.8729 11.1829 15.1943 10.9514 15.4129C10.72 15.6443 10.3986 15.76 9.98714 15.76C9.56286 15.76 9.24143 15.6443 9.01 15.4257Z" fill="black"/>
</svg>
