<svg width="20" height="20" viewBox="0 0 20 20" fill="none" xmlns="http://www.w3.org/2000/svg">
<path d="M10.5917 1.90833C10.5142 1.83023 10.422 1.76823 10.3205 1.72592C10.2189 1.68362 10.11 1.66183 10 1.66183C9.88999 1.66183 9.78107 1.68362 9.67952 1.72592C9.57797 1.76823 9.4858 1.83023 9.40833 1.90833L1.90833 9.40833C1.83023 9.4858 1.76823 9.57797 1.72592 9.67952C1.68362 9.78107 1.66183 9.88999 1.66183 10C1.66183 10.11 1.68362 10.2189 1.72592 10.3205C1.76823 10.422 1.83023 10.5142 1.90833 10.5917C1.9862 10.6689 2.07855 10.73 2.18008 10.7715C2.28161 10.8129 2.39033 10.834 2.5 10.8333H3.33333V16.6667C3.33333 17.1087 3.50893 17.5326 3.82149 17.8452C4.13405 18.1577 4.55797 18.3333 5 18.3333H15C15.442 18.3333 15.8659 18.1577 16.1785 17.8452C16.4911 17.5326 16.6667 17.1087 16.6667 16.6667V10.8333H17.5C17.721 10.8333 17.933 10.7455 18.0893 10.5893C18.2455 10.433 18.3333 10.221 18.3333 10C18.334 9.89033 18.3129 9.78161 18.2715 9.68008C18.23 9.57855 18.1689 9.4862 18.0917 9.40833L10.5917 1.90833Z" fill="black"/>
</svg>
