<svg width="20" height="20" viewBox="0 0 20 20" fill="none" xmlns="http://www.w3.org/2000/svg">
<path d="M3 15.9969V8.55525C2.99996 8.28093 3.06763 8.01084 3.19701 7.76894C3.32639 7.52705 3.51347 7.32083 3.74167 7.16858L9.575 3.28025C9.84888 3.09752 10.1708 3 10.5 3C10.8292 3 11.1511 3.09752 11.425 3.28025L17.2583 7.16858C17.4865 7.32083 17.6736 7.52705 17.803 7.76894C17.9324 8.01084 18 8.28093 18 8.55525V15.9969M3 15.9969C3 16.4389 3.17559 16.8629 3.48816 17.1754C3.80072 17.488 4.22464 17.6636 4.66667 17.6636H16.3333C16.7754 17.6636 17.1993 17.488 17.5118 17.1754C17.8244 16.8629 18 16.4389 18 15.9969M3 15.9969L8.625 12.2469M18 15.9969L12.375 12.2469M8.625 12.2469L3 8.49692M8.625 12.2469L9.575 12.8802C9.84888 13.063 10.1708 13.1605 10.5 13.1605C10.8292 13.1605 11.1511 13.063 11.425 12.8802L12.375 12.2469M12.375 12.2469L18 8.49692" stroke="black" stroke-width="1.5" stroke-linecap="round" stroke-linejoin="round"/>
</svg>
