<svg width="20" height="20" viewBox="0 0 20 20" fill="none" xmlns="http://www.w3.org/2000/svg">
<path d="M15 4.5V3.66667C15 3.22464 14.8495 2.80072 14.5816 2.48816C14.3137 2.17559 13.9503 2 13.5714 2H6.42857C6.04969 2 5.68633 2.17559 5.41842 2.48816C5.15051 2.80072 5 3.22464 5 3.66667V15.3333C5 15.7754 5.15051 16.1993 5.41842 16.5118C5.68633 16.8244 6.04969 17 6.42857 17H13.5714C13.9503 17 14.3137 16.8244 14.5816 16.5118C14.8495 16.1993 15 15.7754 15 15.3333V14.5M10 9.5H15H10ZM15 9.5L12.8571 12L15 9.5ZM15 9.5L12.8571 7L15 9.5Z" stroke="black" stroke-width="1.5" stroke-linecap="round" stroke-linejoin="round"/>
</svg>
