<svg width="20" height="20" viewBox="0 0 20 20" fill="none" xmlns="http://www.w3.org/2000/svg">
<path d="M10 18.3333C10.9167 18.3333 11.6667 17.5833 11.6667 16.6667H8.33335C8.33335 17.1087 8.50894 17.5326 8.8215 17.8452C9.13406 18.1577 9.55799 18.3333 10 18.3333ZM15 13.3333V9.16666C15 6.60833 13.6333 4.46666 11.25 3.89999V3.33333C11.25 2.64166 10.6917 2.08333 10 2.08333C9.30835 2.08333 8.75001 2.64166 8.75001 3.33333V3.89999C6.35835 4.46666 5.00001 6.59999 5.00001 9.16666V13.3333L3.92501 14.4083C3.40001 14.9333 3.76668 15.8333 4.50835 15.8333H15.4833C16.225 15.8333 16.6 14.9333 16.075 14.4083L15 13.3333Z" fill="black"/>
</svg>
