<svg width="20" height="20" viewBox="0 0 20 20" fill="none" xmlns="http://www.w3.org/2000/svg">
<path d="M10.5601 8.89845L10.566 3.83674C10.566 3.61483 10.4779 3.402 10.321 3.24508C10.164 3.08816 9.95122 3 9.7293 3C9.50738 3 9.29455 3.08816 9.13763 3.24508C8.98071 3.402 8.89256 3.61482 8.89256 3.83674L8.89845 8.89845L3.83674 8.89256C3.61482 8.89256 3.402 8.98071 3.24508 9.13763C3.08816 9.29455 3 9.50738 3 9.7293C3 9.95122 3.08816 10.164 3.24508 10.321C3.402 10.4779 3.61483 10.566 3.83674 10.566L8.89845 10.5601L8.89256 15.6219C8.89211 15.7319 8.91344 15.8409 8.95533 15.9426C8.99722 16.0443 9.05884 16.1367 9.13663 16.2145C9.21442 16.2923 9.30684 16.3539 9.40856 16.3958C9.51028 16.4377 9.61929 16.459 9.7293 16.4586C9.83931 16.459 9.94832 16.4377 10.05 16.3958C10.1518 16.3539 10.2442 16.2923 10.322 16.2145C10.3998 16.1367 10.4614 16.0443 10.5033 15.9426C10.5452 15.8409 10.5665 15.7319 10.566 15.6219L10.5601 10.5601L15.6219 10.566C15.7319 10.5665 15.8409 10.5452 15.9426 10.5033C16.0443 10.4614 16.1367 10.3998 16.2145 10.322C16.2923 10.2442 16.3539 10.1518 16.3958 10.05C16.4377 9.94832 16.459 9.83931 16.4586 9.7293C16.459 9.61929 16.4377 9.51028 16.3958 9.40856C16.3539 9.30684 16.2923 9.21442 16.2145 9.13663C16.1367 9.05884 16.0443 8.99722 15.9426 8.95533C15.8409 8.91344 15.7319 8.89211 15.6219 8.89256L10.5601 8.89845Z" fill="black"/>
</svg>
