<svg width="20" height="21" viewBox="0 0 20 21" fill="none" xmlns="http://www.w3.org/2000/svg">
<path d="M14.5263 3.42536C14.5263 1.32668 13.4213 0.210449 11.3438 0.210449H8.86784C6.79028 0.210449 5.6842 1.32668 5.6842 3.42536V14.8585C5.6842 16.9583 6.79028 18.0745 8.86784 18.0745H10.2388L10.9899 19.7269C11.0778 19.9056 11.1451 20.0394 11.3655 20.0394H13.6645C13.9076 20.0394 14.0845 19.8837 13.9738 19.6381L13.0903 17.717C14.04 17.2258 14.5263 16.2653 14.5263 14.8585V3.42536ZM8.69091 4.05146C8.69091 3.47032 9.00026 3.15782 9.57555 3.15782H10.7251C11.2993 3.15782 11.6086 3.47032 11.6086 4.05146V14.2335C11.6086 14.8365 11.2993 15.1271 10.7251 15.1271H9.57555C9.00026 15.1271 8.69091 14.8365 8.69091 14.2335V4.05146Z" fill="#525256"/>
</svg>
