<svg width="20" height="20" viewBox="0 0 20 20" fill="none" xmlns="http://www.w3.org/2000/svg">
<path d="M14.5791 12.6868L14.5798 12.7507C14.5809 13.6356 14.2469 14.4886 13.6439 15.1406L13.646 15.1378C13.0179 15.8242 12.1685 16.2722 11.2436 16.4046L11.2219 16.4074V18.0465C11.2219 18.1226 11.1915 18.1955 11.1372 18.2493C11.083 18.3031 11.0095 18.3333 10.9328 18.3333H10.9209H10.9216H9.65673C9.57736 18.3324 9.50151 18.3008 9.44539 18.2451C9.38927 18.1894 9.35733 18.1141 9.35643 18.0354V16.4074C8.9346 16.3515 8.52012 16.2504 8.12023 16.106L8.16153 16.1192C7.5642 15.9209 7.00375 15.6267 6.50253 15.2482L6.51653 15.2586C6.36344 15.1488 6.21646 15.0308 6.07623 14.9051L6.08113 14.9093C6.0032 14.8352 5.9486 14.7797 5.91733 14.7426C5.86673 14.6927 5.83685 14.6257 5.83361 14.555C5.83037 14.4843 5.854 14.4149 5.89983 14.3606L5.89913 14.3613L6.86443 13.1056C6.89008 13.0728 6.92256 13.0459 6.95965 13.0267C6.99673 13.0076 7.03756 12.9966 7.07933 12.9945H7.08003C7.12154 12.9869 7.16435 12.9907 7.20382 13.0056C7.2433 13.0204 7.27795 13.0456 7.30403 13.0785L7.30473 13.0792L7.32293 13.0973C7.95584 13.6722 8.73044 14.0714 9.56853 14.2544L9.60072 14.2606C9.80932 14.3078 10.0487 14.3349 10.2944 14.3349L10.3378 14.3356C10.8215 14.3356 11.2695 14.1856 11.6384 13.93L11.6307 13.9349C11.8168 13.8101 11.9675 13.64 12.0685 13.441C12.1695 13.2419 12.2173 13.0205 12.2075 12.7979V12.8007C12.2075 12.618 12.155 12.4479 12.0647 12.3041L12.0668 12.3083C11.9815 12.1649 11.8761 12.0342 11.7539 11.92L11.7532 11.9193C11.5905 11.7839 11.4116 11.6689 11.2205 11.5769L11.2051 11.57C10.955 11.4431 10.7497 11.3438 10.5891 11.272C10.4286 11.2003 10.1787 11.0996 9.83942 10.9699C9.59582 10.8708 9.40356 10.7933 9.26263 10.7372C9.12169 10.6812 8.92943 10.599 8.68583 10.4907C8.44223 10.3823 8.24693 10.2863 8.09993 10.2025C7.95293 10.1187 7.7763 10.0087 7.57003 9.87256C7.38933 9.75704 7.22031 9.62446 7.06533 9.47668L7.06603 9.47737C6.92537 9.33615 6.79219 9.18779 6.66703 9.03287L6.65793 9.02176C6.52537 8.86232 6.41539 8.68567 6.33103 8.49669L6.32543 8.48211C6.24413 8.29028 6.17972 8.09183 6.13293 7.88898L6.12803 7.86397C6.07448 7.63112 6.04771 7.393 6.04823 7.15416V7.11666C6.04823 6.24849 6.39893 5.4609 6.96803 4.88721L6.96733 4.88791C7.60167 4.23358 8.43062 3.79812 9.33263 3.64539L9.35783 3.64192V1.96185C9.35783 1.88059 9.39213 1.80697 9.44673 1.75488C9.47371 1.72699 9.5061 1.70479 9.54195 1.68964C9.57779 1.67448 9.61636 1.66667 9.65532 1.66667H10.9342C11.0938 1.66667 11.2233 1.79516 11.2233 1.95351V1.96532V1.96463V3.60164C11.6083 3.64192 11.9597 3.71762 12.2964 3.82597L12.2593 3.81555C12.5806 3.91279 12.8508 4.01905 13.1105 4.14268L13.0741 4.1274C13.3037 4.2406 13.499 4.35659 13.6838 4.48577L13.6698 4.47605C13.8565 4.60662 13.9783 4.69645 14.0352 4.74553C14.0921 4.79461 14.139 4.8379 14.1759 4.87541C14.2263 4.91841 14.2588 4.97836 14.2674 5.04374C14.2759 5.10911 14.2598 5.17531 14.2221 5.22962L14.2228 5.22892L13.4654 6.58743C13.4465 6.62918 13.4165 6.66506 13.3787 6.69124C13.3408 6.71742 13.2965 6.73291 13.2505 6.73606H13.2498C13.2054 6.74523 13.1594 6.74411 13.1154 6.73279C13.0715 6.72146 13.0308 6.70024 12.9964 6.67077H12.9971C12.9784 6.65225 12.9332 6.61521 12.8613 6.55964C12.7895 6.50408 12.6677 6.4219 12.4959 6.31309C12.3293 6.20712 12.156 6.11177 11.9772 6.02763L11.9478 6.01513C11.7323 5.91683 11.5084 5.83803 11.2786 5.77969L11.2492 5.77344C10.9883 5.70256 10.719 5.66659 10.4484 5.66648H10.4477C9.92932 5.64292 9.41699 5.7851 8.98613 6.07208L8.99523 6.06653C8.75692 6.22363 8.57956 6.4565 8.49229 6.72685C8.40503 6.99721 8.41304 7.28898 8.51503 7.55421L8.51223 7.54588C8.57663 7.69868 8.67043 7.82786 8.78803 7.93134L8.78943 7.93204C8.90213 8.03691 9.02253 8.13762 9.14853 8.23138L9.15973 8.23902C9.31023 8.34181 9.48313 8.43835 9.66442 8.51892L9.68543 8.52725C9.91969 8.6356 10.1087 8.71941 10.2524 8.77867C10.3962 8.83794 10.615 8.92313 10.909 9.03426C11.2404 9.15835 11.4935 9.25605 11.6685 9.32735C11.8435 9.39866 12.0811 9.50724 12.3811 9.65309C12.6339 9.77086 12.8774 9.90713 13.1098 10.0608L13.0895 10.0483C13.3065 10.2011 13.4955 10.3539 13.6754 10.5171L13.6712 10.5129C13.8651 10.681 14.0303 10.8755 14.1619 11.0928L14.1682 11.104C14.2844 11.3075 14.3845 11.5443 14.4573 11.7922L14.4636 11.8159C14.5399 12.0694 14.5833 12.3611 14.5833 12.6625V12.6917V12.6903L14.5791 12.6868Z" fill="black"/>
</svg>
