<svg width="20" height="20" viewBox="0 0 20 20" fill="none" xmlns="http://www.w3.org/2000/svg">
<path d="M1.3396 6.53424L17.5472 1.02658C17.6356 0.99655 17.7306 0.991861 17.8215 1.01305C17.9124 1.03423 17.9956 1.08044 18.0616 1.14645C18.1276 1.21245 18.1738 1.29562 18.195 1.38653C18.2162 1.47744 18.2115 1.57247 18.1815 1.66086L12.6731 17.8692C12.6422 17.9599 12.5858 18.0398 12.5107 18.0994C12.4356 18.1589 12.345 18.1957 12.2496 18.2052C12.1543 18.2148 12.0582 18.1967 11.9728 18.1532C11.8874 18.1096 11.8163 18.0425 11.768 17.9597L8.78119 12.8218C8.73289 12.7387 8.7096 12.6433 8.71412 12.5473C8.71863 12.4512 8.75076 12.3585 8.80665 12.2802L12.8612 6.60353C12.8854 6.56974 12.9008 6.53044 12.906 6.48921C12.9111 6.44797 12.906 6.40609 12.8909 6.36736L12.8612 6.31221C12.8285 6.26628 12.7812 6.23277 12.727 6.21711C12.6728 6.20144 12.615 6.20456 12.5628 6.22594L12.5119 6.25422L6.80412 10.3314C6.72585 10.387 6.63322 10.419 6.53729 10.4233C6.44136 10.4277 6.3462 10.4044 6.26318 10.3561L1.24909 7.44075C1.16607 7.39258 1.09867 7.32154 1.05494 7.2361C1.01121 7.15067 0.992986 7.05445 1.00245 6.95894C1.01192 6.86343 1.04868 6.77267 1.10834 6.69748C1.168 6.6223 1.24874 6.56517 1.3396 6.53424Z" fill="black"/>
</svg>
