<svg width="20" height="20" viewBox="0 0 20 20" fill="none" xmlns="http://www.w3.org/2000/svg">
<path d="M9.16296 5.875V3.33333C9.16296 3.11232 9.07516 2.90036 8.91888 2.74408C8.7626 2.5878 8.55064 2.5 8.32962 2.5C8.11101 2.50092 7.90151 2.58771 7.74629 2.74167L1.91296 8.575C1.83485 8.65247 1.77285 8.74464 1.73055 8.84619C1.68824 8.94774 1.66646 9.05666 1.66646 9.16667C1.66646 9.27668 1.68824 9.3856 1.73055 9.48715C1.77285 9.5887 1.83485 9.68086 1.91296 9.75833L7.74629 15.5917C7.86328 15.7063 8.01147 15.784 8.17234 15.8149C8.33321 15.8458 8.49962 15.8287 8.65079 15.7655C8.80195 15.7024 8.93115 15.5961 9.02224 15.4599C9.11333 15.3238 9.16228 15.1638 9.16296 15V12.4167H9.87129C11.1879 12.397 12.493 12.6641 13.696 13.1995C14.899 13.7348 15.9712 14.5255 16.838 15.5167C16.9424 15.6557 17.0878 15.7586 17.2537 15.8109C17.4195 15.8632 17.5976 15.8623 17.763 15.8083C17.9312 15.7516 18.0769 15.6425 18.1789 15.4971C18.2808 15.3517 18.3336 15.1775 18.3296 15C18.3296 7.4 11.5963 6.1 9.16296 5.875ZM9.87129 10.7333C9.31392 10.7316 8.75708 10.7678 8.20462 10.8417C8.00734 10.8716 7.82734 10.9713 7.69736 11.1227C7.56737 11.2741 7.49603 11.4671 7.49629 11.6667V12.9917L3.67962 9.16667L7.49629 5.34167V6.66667C7.49629 6.88768 7.58409 7.09964 7.74037 7.25592C7.89665 7.4122 8.10861 7.5 8.32962 7.5C9.08796 7.5 15.088 7.66667 16.388 12.8583C14.501 11.4671 12.2156 10.7219 9.87129 10.7333Z" fill="black"/>
</svg>
