<svg width="33" height="32" viewBox="0 0 33 32" fill="none" xmlns="http://www.w3.org/2000/svg">
<path d="M27.8791 4.65396C24.9145 1.63756 20.8164 0 16.631 0C7.73725 0 0.58725 7.1533 0.674375 15.8579C0.674375 18.6158 1.45912 21.2877 2.76712 23.7008L0.5 31.8883L8.95788 29.7337C11.3121 31.0265 13.9279 31.6298 16.5439 31.6298C25.3505 31.6298 32.5005 24.4764 32.5005 15.7719C32.5005 11.5488 30.8438 7.58425 27.8792 4.65396H27.8791ZM16.631 28.9581C14.2768 28.9581 11.9225 28.355 9.917 27.1484L9.39388 26.8898L4.33663 28.1825L5.6445 23.2701L5.29575 22.7529C1.45913 16.6338 3.29025 8.53226 9.56825 4.74008C15.8462 0.948016 23.9554 2.75793 27.792 8.96321C31.6285 15.1685 29.7974 23.1837 23.5195 26.9759C21.5139 28.2686 19.0725 28.958 16.631 28.958V28.9581ZM24.3041 19.3918L23.345 18.9608C23.345 18.9608 21.95 18.3575 21.078 17.9265C20.9907 17.9265 20.9036 17.8403 20.8164 17.8403C20.5548 17.8403 20.3804 17.9265 20.206 18.0128C20.206 18.0128 20.1189 18.0989 18.8981 19.4779C18.8109 19.6502 18.6365 19.7365 18.4621 19.7365H18.3749C18.2877 19.7365 18.1134 19.6502 18.0261 19.5641L17.5901 19.3918C16.631 18.9608 15.7591 18.4436 15.0615 17.7542C14.8871 17.5818 14.6255 17.4095 14.4511 17.2371C13.8407 16.6338 13.2304 15.9443 12.7945 15.1686L12.7072 14.9963C12.6201 14.91 12.6201 14.8239 12.5329 14.6516C12.5329 14.4792 12.5329 14.3068 12.6201 14.2206C12.6201 14.2206 12.9689 13.7897 13.2304 13.5312C13.4049 13.3587 13.492 13.1002 13.6664 12.9279C13.8407 12.6693 13.928 12.3246 13.8407 12.066C13.7536 11.635 12.7073 9.30805 12.4458 8.79098C12.2712 8.53239 12.097 8.44627 11.8354 8.36003H10.8763C10.7017 8.36003 10.5275 8.44627 10.353 8.44627L10.2657 8.53239C10.0914 8.61863 9.917 8.79098 9.74263 8.8771C9.56825 9.04958 9.481 9.22181 9.30663 9.39429C8.69625 10.1699 8.3475 11.118 8.3475 12.066C8.3475 12.7554 8.52187 13.4449 8.7835 14.0482L8.87075 14.3068C9.6555 15.9443 10.7017 17.4095 12.097 18.7022L12.4458 19.0469C12.7073 19.3055 12.9689 19.4779 13.1433 19.7363C14.9744 21.2878 17.067 22.4082 19.4212 23.0115C19.6829 23.0976 20.0316 23.0976 20.2932 23.1838H21.1651C21.6011 23.1838 22.1243 23.0115 22.4731 22.8391C22.7346 22.6667 22.909 22.6667 23.0834 22.4944L23.2579 22.3219C23.4323 22.1496 23.6066 22.0634 23.781 21.8911C23.9554 21.7187 24.1297 21.5464 24.217 21.3739C24.3914 21.0292 24.4785 20.5982 24.5658 20.1674V19.5641C24.5658 19.5641 24.4785 19.4779 24.3041 19.3918Z" fill="white"/>
</svg>
