<svg width="32" height="32" viewBox="0 0 32 32" fill="none" xmlns="http://www.w3.org/2000/svg">
<path d="M31.524 6.58267C30.4107 7.07601 29.2147 7.40934 27.9573 7.56001C29.2547 6.78373 30.2253 5.56196 30.688 4.12267C29.4691 4.84666 28.1351 5.35627 26.744 5.62934C25.8085 4.63049 24.5694 3.96844 23.2191 3.74597C21.8688 3.5235 20.4828 3.75306 19.2763 4.39901C18.0698 5.04496 17.1104 6.07116 16.5469 7.31828C15.9834 8.5654 15.8474 9.96367 16.16 11.296C13.6903 11.172 11.2742 10.5301 9.06857 9.41188C6.86296 8.29369 4.91712 6.72422 3.35734 4.80534C2.824 5.72534 2.51734 6.79201 2.51734 7.92801C2.51674 8.95067 2.76858 9.95766 3.25051 10.8596C3.73244 11.7616 4.42955 12.5307 5.28 13.0987C4.2937 13.0673 3.32917 12.8008 2.46667 12.3213V12.4013C2.46657 13.8357 2.96271 15.2258 3.87091 16.336C4.77911 17.4462 6.04343 18.2079 7.44934 18.492C6.53438 18.7396 5.57512 18.7761 4.644 18.5987C5.04067 19.8328 5.81333 20.912 6.85383 21.6852C7.89432 22.4584 9.15056 22.8869 10.4467 22.9107C8.24645 24.6379 5.52919 25.5748 2.732 25.5707C2.23651 25.5708 1.74144 25.5419 1.24934 25.484C4.08864 27.3096 7.39379 28.2784 10.7693 28.2747C22.196 28.2747 28.4427 18.8107 28.4427 10.6027C28.4427 10.336 28.436 10.0667 28.424 9.80001C29.6391 8.9213 30.6879 7.8332 31.5213 6.58667L31.524 6.58267Z" fill="#72B8EC"/>
</svg>
